<!-- Generated by IcoMoon.io -->
<svg version="1.1" xmlns="http://www.w3.org/2000/svg" viewBox="0 0 768 1024">
<title>fire</title>
<g id="icomoon-ignore">
</g>
<path fill="#ff6b09" d="M701.082 530.944c-9.062-20.275-21.606-40.294-39.936-63.437-46.080-58.010-60.211-187.392-60.365-188.672-0.703-6.202-4.95-11.256-10.642-13.127l-0.11-0.031c-1.434-0.471-3.084-0.742-4.797-0.742-4.673 0-8.875 2.020-11.78 5.234l-0.012 0.014c-55.091 61.594-31.949 156.672-19.456 194.714 3.482 10.394 7.219 22.63 9.882 35.072 20.326 100.352-18.944 145.818-28.16 154.982-8.909 2.458-15.002 1.229-20.634-4.813-19.456-21.248-25.805-90.931-16.742-181.709 1.894-18.432 1.382-35.021-1.28-50.534-19.098-111.616-89.293-183.142-107.162-208.23-49.152-72.602-54.118-193.485-54.272-194.56-0.332-8.362-7.191-15.016-15.604-15.016-3.295 0-6.351 1.020-8.87 2.762l0.052-0.034c-81.92 55.706-74.906 189.952-63.488 264.858 2.662 17.408 7.834 35.072 16.742 57.395 31.744 79.923-6.246 183.091-6.605 184.013-0.307 0.973-0.614 1.741-0.768 2.662-4.864 25.446-12.954 40.653-22.016 40.653-1.088-0.026-2.123-0.212-3.096-0.534l0.075 0.022c-11.11-2.304-16.896-14.080-17.050-24.32-0.614-132.352-133.427-176.896-134.861-177.357-1.43-0.479-3.078-0.755-4.789-0.755-4.708 0-8.929 2.091-11.783 5.394l-0.017 0.020c-2.384 2.68-3.84 6.23-3.84 10.121 0 2.549 0.625 4.952 1.73 7.064l-0.040-0.084c1.536 3.226 6.554 17.51 3.072 67.942-2.918 45.312-11.264 90.112-24.525 133.12-16.89 55.056-26.616 118.34-26.616 183.896 0 7.495 0.127 14.96 0.379 22.394l-0.029-1.080c24.269 264.192 404.326 310.528 629.811 161.638 23.435-15.067 43.244-33.458 59.388-54.777l0.414-0.57c83.2-114.842 34.253-270.746-2.202-353.587zM123.034 783.36c0.461 8.602-6.144 15.872-14.746 16.384h-0.922c-0.023 0-0.051 0-0.078 0-8.272 0-15.037-6.453-15.535-14.6l-0.002-0.044c-1.434-22.63-1.126-46.387 0.614-72.141 0.719-8.136 7.501-14.469 15.763-14.469 0.345 0 0.687 0.011 1.026 0.033l-0.046-0.002c8.166 0.561 14.577 7.323 14.577 15.581 0 0.372-0.013 0.742-0.039 1.108l0.003-0.049c-1.741 24.474-2.048 46.848-0.614 68.25zM130.714 645.939c-0.952 7.738-7.485 13.671-15.404 13.671-0.039 0-0.077 0-0.116 0h0.006c-0.614 0-1.28 0-2.048-0.154-7.771-1.005-13.713-7.581-13.713-15.545 0-0.602 0.034-1.197 0.1-1.781l-0.007 0.072 7.526-59.904c1.113-7.716 7.68-13.58 15.617-13.58 0.667 0 1.325 0.041 1.971 0.122l-0.077-0.008c7.776 0.944 13.742 7.504 13.742 15.458 0 0.688-0.045 1.365-0.131 2.029l0.008-0.078-7.526 59.699zM595.251 212.275c-7.553-1.13-13.28-7.572-13.28-15.352 0-0.816 0.063-1.617 0.184-2.399l-0.011 0.087c1.024-6.349 6.656-38.605 22.016-54.784 2.872-3.033 6.927-4.921 11.423-4.921 4.111 0 7.854 1.579 10.655 4.163l-0.011-0.010c6.298 5.888 6.656 15.718 0.717 21.965-6.502 6.861-12.032 26.522-13.824 38.298-1.23 7.501-7.665 13.155-15.421 13.155-0.882 0-1.748-0.073-2.59-0.214l0.091 0.013zM24.883 289.536c-2.97-11.52-10.445-30.566-17.562-36.762-3.277-2.842-5.337-7.012-5.337-11.663 0-3.943 1.481-7.54 3.917-10.266l-0.013 0.015c2.892-3.235 7.077-5.262 11.736-5.262 3.94 0 7.541 1.45 10.3 3.844l-0.019-0.016c16.896 14.694 25.702 46.234 27.29 52.429 0.299 1.139 0.471 2.447 0.471 3.795 0 7.226-4.94 13.298-11.628 15.023l-0.108 0.024c-1.171 0.314-2.515 0.494-3.902 0.494-7.226 0-13.31-4.892-15.119-11.545l-0.025-0.11z"></path>
</svg>
