<svg aria-hidden="true" style="position:absolute;width:0;height:0" xmlns="http://www.w3.org/2000/svg" overflow="hidden"><defs><symbol id="icon-group" viewBox="0 0 33 32"><path d="M1.993 12.558v2.831a.5.5 0 00.189.39 11.099 11.099 0 006.837 2.362c.74 0 1.482-.077 2.206-.224a12.01 12.01 0 004.89 1.032c1.707 0 3.351-.349 4.89-1.032 3.091.624 6.384-.046 9.042-2.138a.495.495 0 00.189-.39v-2.831a1.2 1.2 0 00-.575-1.027l-3.867-2.176c.846-1.073 1.476-2.602 1.586-3.913.321-2.256-1.518-4.646-4.166-4.646a4.208 4.208 0 00-2.948 1.227c-.027.027-.058.049-.084.076-.024.025-.043.054-.067.08-.016.017-.029.036-.044.053C19.314.852 17.86 0 16.147 0c-.166 0-.33.011-.492.028-.01-.001-.018-.006-.028-.006-.092 0-.287.024-.391.054-.015.004-.026.015-.041.021a4.485 4.485 0 00-3.013 2.156A4.176 4.176 0 009.003.796c-3.908 0-5.642 4.612-2.557 8.581l-3.903 2.167a1.192 1.192 0 00-.553 1.014zm19.003 4.27c-.084.041-.167.085-.251.123l-.002.001a11.007 11.007 0 01-4.627 1.006 11.023 11.023 0 01-6.674-2.228v-2.87c0-.098.047-.184.102-.221l4.542-2.524c.565.48 1.287.832 2.035.832.721 0 1.499-.357 2.052-.843l4.487 2.52c.083.053.13.139.13.237v2.87c-.571.429-1.173.795-1.794 1.098zm8.158-4.446a.201.201 0 01.092.176v2.587a9.986 9.986 0 01-6.737 1.98c.369-.23.771-.516 1.083-.76a.496.496 0 00.19-.39v-3.114c0-.435-.218-.835-.61-1.087l-2.383-1.339.58-.321c.703.573 1.307.744 1.848.744.663 0 1.36-.325 1.878-.759l4.06 2.284zM23.216 1.788c1.38 0 2.593.902 3.021 2.142A3.703 3.703 0 0124 2.788a.494.494 0 00-.788.084 3.684 3.684 0 01-2.548 1.76v-.003a4.786 4.786 0 00-.162-1.329c.563-.902 1.609-1.513 2.713-1.513zm-2.66 3.856a4.642 4.642 0 003.164-1.762 4.684 4.684 0 002.702 1.056c-.007 1.792-1.471 4.927-3.206 4.927-1.337 0-2.479-1.912-2.905-3.238a8.15 8.15 0 00.245-.983zm.101 3.729l-.886.491-.895-.502c.332-.413.636-.893.896-1.413.25.526.55 1.01.884 1.425zM19.32 6.465c-.478 1.427-1.705 3.49-3.199 3.49-1.742 0-3.226-2.864-3.509-4.696.075-.019 2.43.126 4.049-2.001.822.688 1.932 1.143 3.011 1.188.013.647-.144 1.406-.352 2.018zM16.15.992c2.78 0 3.309 2.392 3.352 2.442a4.123 4.123 0 01-2.563-1.276.497.497 0 00-.789.087 4.073 4.073 0 01-3.58 2.022c.136-1.822 1.596-3.274 3.58-3.274zm-3.689 6.946c.257.515.563 1.006.913 1.438l-.875.487-.907-.51a7.76 7.76 0 00.87-1.415zm-3.455-6.15c1.125 0 2.155.571 2.729 1.514-.029.1-.106.498-.117.548a3.675 3.675 0 01-1.821-1.062.496.496 0 00-.788.086 3.712 3.712 0 01-3.177 1.815c.158-1.627 1.518-2.9 3.174-2.9zm-3.13 3.89a4.711 4.711 0 003.643-1.796 4.629 4.629 0 002.055.961c.029.575.179 1.273.35 1.789-.274.84-.799 1.841-1.451 2.505l-.014.01c-.408.43-.988.719-1.444.719-1.594 0-2.841-2.508-3.14-4.188zm-2.891 6.88c0-.075.033-.139.067-.162l4.116-2.284c.247.206.304.229.353.265.484.322.928.482 1.534.482.645 0 1.232-.273 1.749-.694.029-.023.06-.045.088-.068l.587.33-2.446 1.361a1.269 1.269 0 00-.584 1.071v3.114c0 .152.07.296.19.39.317.249.727.539 1.083.761a10.024 10.024 0 01-6.737-1.98v-2.587z"/><path d="M31.259 20.781a2.063 2.063 0 00-2.007-.11l-6.119 2.956a2.111 2.111 0 00-2.107-2.072l-3.509.001c-1.73-1.504-3.941-2.425-5.952-2.473-1.983-.047-3.763-.06-4.593-.064v-1.002H0v11.517h6.972v-1.379C8.884 29.252 13.911 32 16.297 32c.054 0 .107-.001.158-.004 4.196-.235 14.091-7.198 14.743-7.661a2.08 2.08 0 001.034-1.796c0-.719-.364-1.376-.973-1.758zM5.98 28.542H.992v-9.533H5.98v9.533zm24.707-5.058a.296.296 0 00-.044.028c-.102.073-10.281 7.271-14.244 7.494a2.354 2.354 0 01-.121.003c-2.092 0-7.194-2.753-9.307-4.001v-6.997c.827.004 2.597.017 4.569.064 1.837.044 3.876.921 5.456 2.346l.141.128 3.887-.001c.617 0 1.119.502 1.119 1.119s-.502 1.119-1.119 1.119h-7.142v.992h7.142c.684 0 1.288-.333 1.674-.839l6.984-3.373c.343-.167.725-.146 1.049.057s.508.537.508.918c0 .391-.212.753-.553.945zM16.612 12.158h-.992v.92h.992v-.92zM16.612 13.992h-.992v.92h.992v-.92zM16.612 15.826h-.992v.92h.992v-.92z"/></symbol><symbol id="icon-close" viewBox="0 0 34 32"><path stroke-width="4" d="M2.004 30.496L30.995 1.505M30.996 30.496L2.005 1.505"/></symbol><symbol id="icon-menu" viewBox="0 0 48 32"><path stroke-width="4.571" d="M0 2.286h46.857M0 16h46.857M0 29.714h46.857"/></symbol><symbol id="icon-check" viewBox="0 0 41 32"><path d="M34.457 1.514a29.389 29.389 0 00-4.265 2.379c-2.731 1.797-5.228 3.936-7.57 6.218-2.341 2.287-4.52 4.735-6.581 7.28-.515.636-2.823 3.47-2.823 3.47L3.622 6.481-.001 16.523 12.976 32c1.26-2.551 2.473-5.07 3.662-7.258.296-.556.605-1.08.901-1.612 0 0 1.523-2.677 1.923-3.352 1.602-2.697 3.333-5.325 5.239-7.821 1.908-2.491 3.983-4.87 6.335-6.961a28.328 28.328 0 013.751-2.872c1.332-.848 2.747-1.591 4.261-2.125-1.575.31-3.111.848-4.592 1.514z"/></symbol><symbol id="icon-next" viewBox="0 0 54 32"><path d="M2 14a2 2 0 100 4v-4zm51.414 3.414a2 2 0 000-2.828L40.686 1.858a2 2 0 10-2.828 2.828L49.172 16 37.858 27.314a2 2 0 102.828 2.828l12.728-12.728zM2 18h50v-4H2v4z"/></symbol><symbol id="icon-prev" viewBox="0 0 54 32"><path d="M52 14a2 2 0 110 4v-4zM.586 17.414a2 2 0 010-2.828L13.314 1.858a2 2 0 112.828 2.828L4.828 16l11.314 11.314a2 2 0 11-2.828 2.828L.586 17.414zM52 18H2v-4h50v4z"/></symbol><symbol id="icon-instagram" viewBox="0 0 32 32"><path d="M.528 10.029c.103-.724.181-1.452.311-2.171.739-4.072 3.622-6.842 7.743-6.984 4.963-.171 9.941-.18 14.903-.001 4.486.161 7.735 3.483 7.875 7.971.149 4.765.149 9.542 0 14.307-.14 4.488-3.388 7.809-7.875 7.971-4.962.179-9.941.184-14.903-.003C4.095 30.95.993 27.621.693 23.127c-.026-.389-.109-.774-.166-1.161V10.029zm15.476 18.434c2.271 0 4.544.068 6.812-.016 3.556-.132 5.743-2.254 5.826-5.806.103-4.426.103-8.859 0-13.286-.083-3.552-2.272-5.723-5.826-5.799a321.623 321.623 0 00-13.539 0C5.75 3.63 3.556 5.758 3.46 9.27a247.364 247.364 0 000 13.455c.096 3.512 2.289 5.591 5.817 5.721 2.239.083 4.484.016 6.727.016z"/><path d="M16 8.115a7.885 7.885 0 100 15.77c4.355 0 7.885-3.53 7.885-7.885S20.355 8.115 16 8.115zm0 13.055a5.17 5.17 0 110-10.344 5.17 5.17 0 010 10.345zM26.222 7.755a1.876 1.876 0 11-3.752 0 1.876 1.876 0 013.752 0z"/></symbol><symbol id="icon-phone" viewBox="0 0 33 32"><path d="M4.817.003a2.072 2.072 0 00-1.44.674L.693 3.627c.004-.009-.01-.007-.087.1a.627.627 0 00-.093.182c-1.092 3.48-.36 7.308 1.424 10.949s4.63 7.125 7.897 9.984c3.267 2.859 6.953 5.096 10.468 6.205s6.922 1.095 9.448-.737a.697.697 0 00.077-.067c.066-.066.068-.075.058-.065l.01-.013 2.671-2.938a2.09 2.09 0 00-.138-2.938l-6.337-5.763a2.09 2.09 0 00-2.938.137l-2.867 3.153c-2.327-.674-4.317-1.816-6.231-3.557s-3.24-3.615-4.131-5.869l2.866-3.153a2.09 2.09 0 00-.137-2.938L6.316.536A2.07 2.07 0 004.818.001h-.001zm.061 1.293a.772.772 0 01.559.208l6.337 5.763a.762.762 0 01.052 1.097l-3.169 3.482a.664.664 0 00-.129.661c.962 2.624 2.513 4.777 4.648 6.719s4.423 3.283 7.126 3.992a.65.65 0 00.647-.192l3.169-3.483a.76.76 0 011.096-.051l6.338 5.763a.76.76 0 01.051 1.096l-2.649 2.912c-2.072 1.488-4.992 1.571-8.262.539-3.282-1.036-6.846-3.182-9.999-5.942s-5.898-6.131-7.585-9.573C1.438 10.88.833 7.435 1.751 4.399l2.588-2.844a.775.775 0 01.538-.26z"/></symbol><symbol id="icon-vk" viewBox="0 0 53 32"><path d="M45.901 20.1c1.769 1.727 3.636 3.352 5.223 5.254.701.845 1.364 1.717 1.872 2.698.719 1.394.068 2.928-1.182 3.011l-7.77-.004c-2.004.166-3.603-.64-4.947-2.011-1.076-1.096-2.072-2.262-3.106-3.395-.424-.463-.868-.898-1.398-1.243-1.061-.689-1.981-.478-2.587.628-.617 1.125-.758 2.371-.818 3.625-.083 1.829-.636 2.311-2.474 2.394-3.928.185-7.655-.409-11.118-2.39-3.053-1.747-5.42-4.213-7.481-7.004C6.103 16.227 3.031 10.254.27 4.114-.352 2.731.103 1.988 1.629 1.962c2.535-.049 5.069-.046 7.607-.004 1.03.015 1.712.606 2.11 1.579 1.371 3.372 3.049 6.58 5.156 9.554.561.792 1.133 1.583 1.947 2.141.901.617 1.587.412 2.011-.591.269-.636.387-1.322.447-2.004.201-2.345.227-4.686-.125-7.023-.216-1.458-1.038-2.403-2.493-2.679-.743-.141-.632-.417-.273-.841.625-.731 1.212-1.186 2.383-1.186h8.781c1.382.273 1.689.894 1.879 2.285l.007 9.754c-.015.538.269 2.136 1.239 2.493.776.254 1.288-.367 1.754-.86 2.102-2.231 3.603-4.868 4.943-7.599.595-1.201 1.106-2.448 1.602-3.694.367-.924.944-1.379 1.985-1.359l8.451.008c.251 0 .504.004.747.045 1.424.243 1.814.855 1.375 2.246-.693 2.182-2.041 4-3.36 5.827-1.409 1.95-2.917 3.834-4.314 5.795-1.284 1.792-1.182 2.695.413 4.251z"/></symbol><symbol id="icon-book_1" viewBox="0 0 37 32"><path d="M2.381 29.453h12.23a3.738 3.738 0 003.38 2.116h.772c1.465 0 2.761-.83 3.381-2.116h12.237a2.289 2.289 0 002.286-2.286V5.262a2.289 2.289 0 00-2.286-2.286h-1.234V1.955c0-.84-.684-1.524-1.524-1.524H5.132c-.84 0-1.524.683-1.524 1.524v1.021H2.381A2.289 2.289 0 00.095 5.262v21.905a2.289 2.289 0 002.286 2.286zm29.24-4.701H19.143V7.047c2.884.377 5.121 2.845 5.121 5.831v.687l-.181-.04a.759.759 0 00-.908.58l-1.213 5.519c-.09.41.17.816.58.907l2.621.578a1.946 1.946 0 002.319-1.492l.702-3.192a1.954 1.954 0 00-1.484-2.324l-.912-.201v-1.023c0-3.827-2.917-6.986-6.644-7.37V1.956h12.48l-.001 22.796zm-7.122-9.575l1.871.412a.422.422 0 01.325.508l-.702 3.191a.45.45 0 01-.507.331l-1.874-.413.886-4.03zM5.132 1.956h12.487v3.55c-3.731.381-6.652 3.541-6.652 7.371v1.022l-.914.202a1.935 1.935 0 00-1.222.854c-.28.439-.373.961-.26 1.468l.7 3.188a1.96 1.96 0 002.325 1.495l2.61-.577a.762.762 0 00.58-.907l-1.213-5.519c-.043-.198-.164-.37-.334-.478s-.378-.144-.574-.102l-.174.038v-.686c0-2.988 2.24-5.458 5.128-5.832v17.706H5.132V1.953zm7.117 13.221l.887 4.029-1.863.411a.433.433 0 01-.512-.328l-.702-3.196a.42.42 0 01.323-.506l1.867-.412zM1.619 5.262c0-.42.341-.762.762-.762h1.227v20.252c0 .84.684 1.524 1.524 1.524h26.491c.84 0 1.524-.683 1.524-1.524V4.5h1.234c.42 0 .762.342.762.762v21.905c0 .42-.342.762-.762.762H21.627a.76.76 0 00-.728.538 2.22 2.22 0 01-2.135 1.577h-.772a2.229 2.229 0 01-2.138-1.586.762.762 0 00-.725-.529H2.382a.763.763 0 01-.762-.762V5.262z"/></symbol><symbol id="icon-book_2" viewBox="0 0 44 32"><path d="M19.6 4.608H5.96v1.021H19.6V4.608zM19.6 8.416H8.003v1.021H19.6V8.416zM19.6 12.224H5.96v1.021H19.6v-1.021zM19.6 16.032H8.003v1.021H19.6v-1.021zM19.6 19.84H5.96v1.021H19.6V19.84zM19.6 23.648H8.003v1.021H19.6v-1.021zM38.323 4.608h-13.64v1.021h13.64V4.608zM36.281 8.416H24.684v1.021h11.597V8.416zM38.323 12.224h-13.64v1.021h13.64v-1.021zM36.281 16.032H24.684v1.021h11.597v-1.021zM38.323 19.84h-13.64v1.021h13.64V19.84zM36.281 23.648H24.684v1.021h11.597v-1.021z"/><path d="M43.248 3.445h-1.872V.633a.511.511 0 00-.511-.511H25.6c-1.49 0-2.781.805-3.458 2.011A3.95 3.95 0 0018.683.122H3.418a.511.511 0 00-.511.511v2.812H1.035a.511.511 0 00-.511.511v27.411c0 .282.229.511.511.511h42.213a.511.511 0 00.511-.511V3.956a.511.511 0 00-.511-.511zM25.601 1.144h14.754v27.35H24.512a3.01 3.01 0 00-1.859.68V4.085a2.932 2.932 0 012.948-2.942zm-21.672 0h14.754a2.924 2.924 0 012.942 2.829c.001.022.003.091.006.112v25.087a2.987 2.987 0 00-1.852-.678H3.929V1.144zM1.546 4.467h1.362v24.538c0 .282.229.511.511.511H19.78c.778 0 1.531.511 1.771 1.341H1.546V4.467zm41.192 26.389H22.734a1.845 1.845 0 011.778-1.341h16.354a.511.511 0 00.511-.511V4.466h1.362v26.39z"/></symbol><symbol id="icon-table" viewBox="0 0 31 32"><path d="M30.151 4.961l-.001-.002a.32.32 0 00-.06-.09L25.284.063a.258.258 0 00-.041-.033l-.009-.006c-.012-.007-.024-.014-.036-.019L25.187 0a.277.277 0 00-.099-.02H3.912a.284.284 0 00-.284.284v29.311c0 .019.002.037.006.056l.007.023.009.03.014.026.013.023c.01.014.021.028.033.04l.003.003 2.165 2.164c.111.111.29.111.402 0l1.964-1.963 1.964 1.963c.055.056.128.083.201.083s.145-.027.201-.083l1.963-1.963 1.965 1.963a.284.284 0 00.402 0l1.963-1.963 1.963 1.963a.283.283 0 00.401 0l1.965-1.963 1.964 1.963c.055.056.128.083.201.083s.145-.027.201-.083l1.963-1.963 1.965 1.963a.283.283 0 00.401 0l2.165-2.164.011-.014.024-.029c.007-.009.011-.02.016-.03.003-.007.007-.012.009-.019.006-.013.009-.026.012-.039l.005-.013a.286.286 0 00.006-.058V5.071a.296.296 0 00-.023-.109zM25.367.949l3.836 3.835h-3.836V.949zm4.237 28.507l-1.88 1.88-1.965-1.963a.283.283 0 00-.401 0l-1.963 1.963-1.964-1.963a.284.284 0 00-.402 0l-1.965 1.963-1.963-1.962v-.001a.284.284 0 00-.402 0l-1.963 1.963-1.965-1.963a.284.284 0 00-.402 0l-1.963 1.963-1.964-1.963a.284.284 0 00-.402 0l-1.965 1.963-1.88-1.88V.547h20.603v4.522c0 .157.127.284.284.284h4.521v24.103z"/><path d="M6.314 3.234h9.303a.284.284 0 100-.568H6.314a.284.284 0 100 .568zM6.314 4.991h14.919a.284.284 0 100-.568H6.314a.284.284 0 100 .568zM6.03 6.568v9.199c0 .157.127.284.284.284h21.172a.284.284 0 00.284-.284V6.568a.284.284 0 00-.284-.284H6.314a.284.284 0 00-.284.284zm6.278.284h14.893v2.445H12.308V6.852zm0 3.013h14.893v2.444H12.308V9.865zm0 3.012h14.893v2.605H12.308v-2.605zm-5.71-6.025h5.142v2.445H6.598V6.852zm0 3.013h5.142v2.444H6.598V9.865zm0 3.012h5.142v2.605H6.598v-2.605zM27.486 17.329H6.314a.284.284 0 00-.284.284v9.198a.284.284 0 10.568 0v-2.889h5.142v2.889a.284.284 0 10.568 0v-2.889h14.893v2.889a.284.284 0 10.568 0v-9.198a.282.282 0 00-.283-.284zM11.74 23.354H6.598v-2.443h5.142v2.443zm0-3.012H6.598v-2.444h5.142v2.444zm15.461 3.012H12.308v-2.443h14.893v2.443zm0-3.012H12.308v-2.444h14.893v2.444zM2.281-.021a.284.284 0 00-.284.284v29.311a.284.284 0 10.568 0V.263a.284.284 0 00-.284-.284zM.718-.021a.284.284 0 00-.284.284v29.311a.284.284 0 10.568 0V.263a.284.284 0 00-.284-.284z"/></symbol><symbol id="icon-cap" viewBox="0 0 33 32"><path d="M30.175-.128H14.429a1.861 1.861 0 00-1.859 1.859v6.518L.872 13.159a.38.38 0 00-.049.678l1.492.893v9.515A1.719 1.719 0 00.98 25.919v.917c0 .21.171.381.381.381h2.671c.21 0 .381-.171.381-.381v-.917a1.72 1.72 0 00-1.336-1.673v-9.06l1.18.706c-.036.272-.005-.474-.017 4.43 0 1.612 4.129 2.476 8.33 2.525v7.425a1.858 1.858 0 001.858 1.856h15.746a1.859 1.859 0 001.857-1.857c0 .051-.002-1.573 0-28.54a1.87 1.87 0 00-1.856-1.859zM3.652 25.918v.536H1.743v-.536a.955.955 0 111.909 0zm26.523 5.446H14.429a1.096 1.096 0 01-1.096-1.094v-2.574h17.935v2.575c0 .597-.497 1.092-1.092 1.092zm1.092-4.429H13.332v-4.086c2.051-.023 8.335-.475 8.335-2.527-.002-3.081.005-4.33-.01-4.436l3.421-2.049a.382.382 0 00-.049-.678l-11.698-4.91V5.067h17.935v21.868zm-18.316-9.143c-2.113 0-6.182.273-7.949 1.427.011-3.53-.122-3.3.312-3.6 1.098-.809 4.238-1.373 7.637-1.373 1.482 0 7.954.408 7.954 1.778v3.195c-1.784-1.165-5.832-1.428-7.954-1.428zm.382-16.061c0-.604.491-1.095 1.095-1.095h15.746c.604 0 1.093.498 1.093 1.095v2.574H13.332V1.731zm-.382 7.184l11.09 4.655-2.748 1.644c-1.461-1.449-6.294-1.73-8.342-1.73-2.051 0-6.884.282-8.342 1.73L1.86 13.569l11.091-4.655zM5.002 20.321c0-.617 2.73-1.767 7.949-1.767 5.222 0 7.954 1.151 7.954 1.767s-2.732 1.768-7.954 1.768c-5.219 0-7.949-1.151-7.949-1.768z"/><path d="M22.301 28.271a1.261 1.261 0 000 2.52 1.261 1.261 0 000-2.52zm0 1.759a.499.499 0 11.002-.998.499.499 0 01-.002.998zM23.754 2.09h-2.906v.762h2.906V2.09z"/></symbol><symbol id="icon-man" viewBox="0 0 27 32"><path d="M-.105 31.754H27.25c.136-3.12-.088-8.295-2.006-10.759l-.069-.088-4.191-2.104c.091-.307.136-.588.154-.795a1.449 1.449 0 00-.102-.692c-.691-1.655-2.155-2.525-2.959-2.896a5.158 5.158 0 00.48-1.567c.456-.128.822-.489.942-.971l.489-1.987a1.329 1.329 0 00-.454-1.364c1.379-3.133-.931-6.087-1.057-6.243C15.975-.417 12.815.089 12.648.119c-4.561.955-6.321 4.451-5.328 8.55-.294.326-.418.78-.309 1.226l.492 1.99c.119.478.483.838.935.968.14.993.56 1.89 1.177 2.614v1.576c-6.545 3.352-2.398 1.213-7.643 3.867-.01.049-2.461 2.654-2.097 10.375l.022.472zm26.404-.991h-4.502v-1.891l2.978-6.817c1.492 2.476 1.547 7.203 1.524 8.708zm-6.144-12.84c-.174 1.996-1.268 1.393-1.944 2.93-.531-.584-.691-1.285-.548-2.035.258-1.377-.583-1.786-.375-3.233l.031-.033v-.005c.018-.02.184-.217.232-.28 1.781.776 2.639 2.221 2.604 2.656zM10.6 16.354a5.075 5.075 0 005.694.076c.114 1.138.559 1.365.401 2.203a3.5 3.5 0 00-.055.459l-3.066 3.456-3.919-4.419.946-.494v-1.281zm-1.233-4.229v-1.916-3.366c.477-.883 1.128-1.522 1.936-1.906 2.165 1.225 4.657 3.053 6.329 4.893-.002 2.343.007 2.35-.009 2.542l-.001.012c-.13 2.128-1.88 3.892-4.124 3.892-2.181 0-3.992-1.713-4.123-3.913a2.69 2.69 0 01-.008-.238zm-.611 6.482l4.816 5.43 3.234-3.644c.074.213.178.414.296.608l-3.53 4.414-5.264-6.583.447-.224zm9.862-7.278v-1.53l.368-.421c.02.775.104-.14-.368 1.951zM12.829 1.09c.196.012 2.824-.4 4.901 1.843.082.103 1.773 2.281 1.093 4.665-.233-1.061-.638-2.42-1.278-3.068l-.7.697c.632.641 1.048 2.591 1.206 3.602-2.901-3.035-6.643-4.957-6.694-4.989-.188.117-1.771.418-2.921 2.653l-.055.107v1.642l-.145.002c-.731-3.528.669-6.33 4.593-7.153zM8.132 9.262l.249 1.008v1.06l-.414-1.674c-.061-.25.124-.344.165-.394zm-.725 10.023l6.166 7.712 4.172-5.218c.454.406.672.464 1.634.959l-.325-1.101c-.082-.279.244-.728.441-.934.44-.238.806-.578 1.08-.998l3.404 1.709-3.167 7.251v2.099H6.335v-2.099l-3.169-7.25 4.242-2.129zM2.37 22.058l2.978 6.815v1.891H.846c-.023-1.504.033-6.229 1.524-8.706z"/></symbol><symbol id="icon-fire" viewBox="0 0 23 32"><path d="M21.908 16.593c-.284-.635-.675-1.261-1.247-1.983-1.442-1.813-1.882-5.857-1.887-5.896a.488.488 0 00-.337-.412.495.495 0 00-.518.141c-1.721 1.925-.997 4.897-.606 6.085.108.325.225.708.308 1.096.636 3.137-.592 4.558-.88 4.844-.279.078-.469.039-.645-.15-.606-.664-.807-2.841-.523-5.678a5.797 5.797 0 00-.039-1.581c-.598-3.486-2.791-5.722-3.349-6.507C10.65 4.283 10.494.506 10.489.472a.487.487 0 00-.763-.383C7.164 1.83 7.384 6.024 7.741 8.365c.083.543.244 1.096.523 1.794.992 2.497-.196 5.721-.205 5.75s-.02.053-.024.082c-.152.795-.406 1.27-.689 1.27a.327.327 0 01-.093-.015c-.347-.073-.528-.441-.533-.761-.02-4.136-4.17-5.527-4.214-5.542a.487.487 0 00-.586.678c.049.102.205.548.098 2.124a18.09 18.09 0 01-.768 4.16C.262 21.124.419 24.174.429 24.32c.759 8.257 12.635 9.704 19.683 5.052.772-.509 1.403-1.091 1.868-1.731 2.601-3.588 1.071-8.461-.068-11.05zM3.844 24.481a.484.484 0 01-.46.509h-.029a.487.487 0 01-.489-.456c-.044-.708-.034-1.45.02-2.255a.49.49 0 01.978.068 15.622 15.622 0 00-.02 2.133zm.24-4.295a.485.485 0 01-.484.427c-.02 0-.039 0-.064-.005a.489.489 0 01-.425-.538l.235-1.871a.494.494 0 01.548-.422c.269.034.46.276.425.543l-.235 1.867zM18.601 6.633a.484.484 0 01-.408-.553c.03-.197.207-1.205.686-1.713.185-.196.493-.206.691-.022s.207.49.022.685c-.203.215-.376.829-.433 1.197a.489.489 0 01-.558.405zM.778 9.048C.684 8.687.452 8.093.229 7.899c-.203-.177-.223-.483-.045-.684s.486-.222.69-.045c.527.458.802 1.445.852 1.638a.49.49 0 01-.947.241z"/></symbol><symbol id="icon-logo" viewBox="0 0 91 32">
<path fill="#111518" style="fill: var(--color1, #111518)" d="M13.608 4.836v12.942h-3.661v-5.047h-4.992v5.047h-3.661v-12.942h3.661v4.863h4.992v-4.863h3.661zM27.006 12.786c0 0.025-0.018 0.314-0.055 0.869h-7.285c0.148 0.518 0.432 0.918 0.851 1.202 0.432 0.271 0.967 0.407 1.609 0.407 0.481 0 0.894-0.068 1.239-0.203 0.358-0.135 0.715-0.358 1.072-0.666l1.849 1.923c-0.974 1.084-2.397 1.627-4.271 1.627-1.171 0-2.2-0.222-3.088-0.666s-1.577-1.060-2.071-1.849c-0.481-0.789-0.721-1.683-0.721-2.681 0-0.986 0.235-1.867 0.703-2.644 0.483-0.786 1.154-1.415 1.951-1.836l0.027-0.013c0.838-0.444 1.781-0.666 2.829-0.666 0.998 0 1.904 0.21 2.718 0.629 0.811 0.406 1.466 1.020 1.911 1.772l0.012 0.021c0.481 0.777 0.721 1.701 0.721 2.773zM21.663 10.086c-0.542 0-0.998 0.154-1.368 0.462-0.357 0.308-0.585 0.727-0.684 1.257h4.105c-0.098-0.53-0.333-0.949-0.703-1.257-0.357-0.308-0.807-0.462-1.35-0.462zM29.365 4.059h3.513v13.719h-3.513v-13.719zM35.9 4.059h3.513v13.719h-3.513v-13.719z"></path>
<path fill="#ff6b09" style="fill: var(--color2, #ff6b09)" d="M4.614 29.724h-1.849l-0.353 0.853h-0.944l1.775-3.982h0.91l1.781 3.982h-0.967l-0.353-0.853zM4.324 29.025l-0.631-1.525-0.631 1.525h1.263zM11.627 29.827v1.576h-0.853v-0.825h-2.811v0.825h-0.853l0.006-1.576h0.159c0.24-0.007 0.408-0.182 0.507-0.523s0.159-0.828 0.181-1.462l0.046-1.246h3.060v3.231h0.557zM8.776 27.927c-0.012 0.432-0.055 0.843-0.126 1.245l0.007-0.051c-0.061 0.319-0.154 0.554-0.279 0.705h1.781v-2.48h-1.365l-0.017 0.58zM15.154 30.646c-0.405 0-0.774-0.087-1.104-0.262-0.322-0.175-0.583-0.424-0.769-0.725l-0.005-0.009c-0.175-0.296-0.279-0.653-0.279-1.033 0-0.011 0-0.021 0-0.032l-0 0.002c0-0.395 0.092-0.747 0.279-1.058 0.19-0.315 0.448-0.56 0.774-0.734 0.33-0.178 0.7-0.267 1.109-0.267 0.345 0 0.656 0.060 0.933 0.182 0.281 0.121 0.516 0.296 0.705 0.523l-0.592 0.546c-0.27-0.311-0.603-0.466-1.001-0.466-0.247 0-0.466 0.055-0.66 0.165-0.192 0.106-0.347 0.259-0.452 0.444l-0.003 0.006c-0.107 0.193-0.159 0.413-0.159 0.66s0.053 0.466 0.159 0.66c0.11 0.193 0.262 0.345 0.455 0.455 0.193 0.107 0.413 0.159 0.66 0.159 0.398 0 0.732-0.157 1.001-0.472l0.592 0.546c-0.187 0.227-0.424 0.407-0.694 0.524l-0.012 0.005c-0.281 0.121-0.594 0.182-0.939 0.182zM19.964 28.974h-0.637v1.604h-0.917v-3.982h0.916v1.61h0.66l1.047-1.61h0.973l-1.303 1.923 1.343 2.059h-1.047l-1.035-1.604zM23.502 26.596h0.916v2.594l1.9-2.594h0.865v3.982h-0.91v-2.588l-1.9 2.588h-0.87v-3.982zM29.198 26.596h0.916v2.594l1.9-2.594h0.865v3.982h-0.91v-2.588l-1.9 2.588h-0.87v-3.982zM31.036 26.34c-0.728 0-1.096-0.29-1.104-0.87h0.631c0.007 0.277 0.165 0.415 0.472 0.415 0.151 0 0.267-0.034 0.347-0.102 0.080-0.072 0.121-0.176 0.125-0.313h0.631c-0.004 0.284-0.097 0.501-0.279 0.649s-0.457 0.222-0.825 0.222z"></path>
<path fill="#111518" style="fill: var(--color1, #111518)" d="M40.226 29.724h-1.849l-0.353 0.853h-0.944l1.775-3.982h0.91l1.781 3.982h-0.967l-0.353-0.853zM39.936 29.025l-0.631-1.525-0.631 1.525h1.263zM46.751 26.596v3.982h-0.922v-1.633h-1.809v1.633h-0.922v-3.982h0.922v1.57h1.809v-1.57h0.922zM51.577 27.346h-1.894l0.006 3.231h-0.916v-3.982h2.81l-0.006 0.751zM56.224 26.596v3.982h-0.91v-3.231h-1.365l-0.028 0.831c-0.019 0.565-0.065 1.024-0.137 1.377-0.073 0.348-0.193 0.619-0.364 0.808-0.167 0.186-0.403 0.279-0.705 0.279-0.125 0-0.277-0.021-0.455-0.063l0.057-0.779c0.049 0.015 0.104 0.023 0.165 0.023 0.22 0 0.373-0.129 0.461-0.387 0.087-0.262 0.142-0.669 0.165-1.223l0.057-1.616h3.061zM58.242 26.596h0.916v2.594l1.9-2.594h0.865v3.982h-0.91v-2.588l-1.901 2.588h-0.87v-3.982zM63.938 26.596h0.916v2.594l1.901-2.594h0.865v3.982h-0.91v-2.588l-1.9 2.588h-0.871v-3.982zM65.776 26.34c-0.729 0-1.097-0.29-1.104-0.87h0.632c0.007 0.277 0.164 0.415 0.471 0.415 0.152 0 0.268-0.034 0.348-0.102 0.079-0.072 0.121-0.176 0.124-0.313h0.631c-0.004 0.284-0.097 0.501-0.279 0.649s-0.457 0.222-0.825 0.222zM71.518 30.646c-0.009 0-0.021 0-0.032 0-0.392 0-0.761-0.097-1.085-0.268l0.013 0.006c-0.322-0.175-0.583-0.424-0.769-0.725l-0.005-0.009c-0.175-0.296-0.279-0.653-0.279-1.033 0-0.011 0-0.021 0-0.032l-0 0.002c0-0.395 0.092-0.747 0.279-1.058 0.189-0.315 0.448-0.56 0.774-0.734 0.312-0.169 0.682-0.268 1.076-0.268 0.012 0 0.023 0 0.035 0l-0.002-0c0.345 0 0.656 0.060 0.933 0.182 0.28 0.121 0.516 0.296 0.705 0.523l-0.592 0.546c-0.269-0.311-0.603-0.466-1.001-0.466-0.247 0-0.466 0.055-0.66 0.165-0.192 0.106-0.347 0.259-0.452 0.444l-0.003 0.006c-0.107 0.193-0.159 0.413-0.159 0.66s0.053 0.466 0.159 0.66c0.11 0.193 0.262 0.345 0.455 0.455 0.193 0.107 0.413 0.159 0.66 0.159 0.398 0 0.732-0.157 1.001-0.472l0.592 0.546c-0.187 0.227-0.424 0.407-0.693 0.524l-0.012 0.005c-0.281 0.121-0.594 0.182-0.939 0.182zM76.329 28.974h-0.637v1.604h-0.916v-3.982h0.916v1.61h0.66l1.047-1.61h0.973l-1.303 1.923 1.343 2.059h-1.047l-1.035-1.604zM79.866 26.596h0.916v2.594l1.9-2.594h0.865v3.982h-0.91v-2.588l-1.9 2.588h-0.87v-3.982zM85.562 26.596h0.916v2.594l1.9-2.594h0.865v3.982h-0.91v-2.588l-1.9 2.588h-0.87v-3.982zM87.4 26.34c-0.728 0-1.096-0.29-1.104-0.87h0.631c0.008 0.277 0.165 0.415 0.472 0.415 0.151 0 0.267-0.034 0.347-0.102 0.080-0.072 0.122-0.176 0.125-0.313h0.631c-0.004 0.284-0.097 0.501-0.279 0.649s-0.457 0.222-0.825 0.222zM74.263 14.949v2.829h-10.391v-12.942h10.15v2.829h-6.527v2.182h5.75v2.736h-5.75v2.367h6.767zM89.348 4.836v12.942h-3.014l-5.713-6.896v6.896h-3.587v-12.942h3.014l5.713 6.896v-6.896h3.587z"></path>
<path fill="#ff6b09" style="fill: var(--color2, #ff6b09)" d="M58.695 11.062c-0.19-0.424-0.45-0.841-0.832-1.323-0.961-1.209-1.254-3.904-1.258-3.93-0.015-0.13-0.103-0.235-0.222-0.274l-0.002-0.001c-0.030-0.010-0.064-0.015-0.1-0.015-0.097 0-0.185 0.042-0.245 0.109l-0 0c-1.147 1.283-0.665 3.264-0.404 4.056 0.071 0.217 0.149 0.472 0.206 0.731 0.423 2.091-0.395 3.038-0.587 3.228-0.186 0.052-0.313 0.026-0.43-0.1-0.405-0.443-0.538-1.894-0.348-3.785 0.015-0.129 0.024-0.279 0.024-0.431 0-0.22-0.018-0.435-0.054-0.645l0.003 0.023c-0.399-2.324-1.861-3.815-2.233-4.338-1.024-1.513-1.128-4.031-1.131-4.053-0.007-0.174-0.15-0.312-0.325-0.312-0.068 0-0.132 0.021-0.184 0.057l0.001-0.001c-1.708 1.161-1.562 3.957-1.323 5.518 0.055 0.363 0.163 0.73 0.348 1.196 0.661 1.664-0.13 3.814-0.137 3.833-0.007 0.020-0.014 0.036-0.016 0.055-0.101 0.53-0.27 0.847-0.46 0.847-0.022-0-0.043-0.004-0.063-0.010l0.002 0c-0.231-0.048-0.352-0.294-0.356-0.507-0.013-2.757-2.78-3.685-2.809-3.695s-0.064-0.016-0.1-0.016c-0.098 0-0.186 0.044-0.246 0.113l-0 0c-0.050 0.056-0.080 0.13-0.080 0.211 0 0.053 0.013 0.102 0.036 0.146l-0.001-0.002c0.033 0.068 0.137 0.365 0.065 1.415-0.068 1.014-0.25 1.959-0.535 2.859l0.023-0.085c-0.658 2.147-0.555 4.18-0.548 4.277 0.506 5.505 8.423 6.47 13.122 3.369 0.515-0.34 0.935-0.727 1.244-1.154 1.734-2.392 0.714-5.641-0.045-7.367zM46.651 16.32c0 0.005 0 0.011 0 0.017 0 0.173-0.136 0.314-0.306 0.322l-0.001 0h-0.020c-0.001 0-0.001 0-0.002 0-0.172 0-0.312-0.134-0.324-0.303l-0-0.001c-0.029-0.471-0.023-0.966 0.014-1.503 0.015-0.169 0.156-0.301 0.328-0.301 0.007 0 0.014 0 0.021 0.001l-0.001-0c0.17 0.012 0.304 0.153 0.304 0.325 0 0.007-0 0.014-0.001 0.022l0-0.001c-0.036 0.511-0.043 0.976-0.013 1.422zM46.81 13.456c-0.020 0.161-0.156 0.284-0.321 0.284-0 0-0.001 0-0.001 0h0c-0.014 0-0.026 0-0.043-0.004-0.162-0.021-0.286-0.158-0.286-0.324 0-0.012 0.001-0.024 0.002-0.036l-0 0.001 0.156-1.248c0.023-0.161 0.16-0.283 0.325-0.283 0.014 0 0.028 0.001 0.042 0.003l-0.002-0c0.179 0.023 0.306 0.184 0.283 0.362l-0.156 1.244zM56.489 4.422c-0.157-0.024-0.276-0.158-0.276-0.32 0-0.017 0.001-0.034 0.004-0.050l-0 0.002c0.021-0.132 0.139-0.804 0.458-1.142 0.060-0.063 0.144-0.102 0.238-0.102 0.086 0 0.165 0.034 0.223 0.088l-0-0c0.132 0.122 0.138 0.326 0.014 0.457-0.135 0.143-0.25 0.553-0.289 0.798-0.026 0.156-0.16 0.274-0.322 0.274-0.018 0-0.035-0.001-0.052-0.004l0.002 0zM44.608 6.032c-0.063-0.24-0.218-0.637-0.366-0.767-0.068-0.059-0.111-0.146-0.111-0.243 0-0.082 0.031-0.156 0.081-0.213l-0 0c0.060-0.068 0.148-0.11 0.245-0.11 0.083 0 0.158 0.031 0.215 0.081l-0-0c0.351 0.306 0.535 0.963 0.567 1.092 0.006 0.024 0.010 0.052 0.010 0.080 0 0.151-0.103 0.277-0.242 0.313l-0.002 0c-0.024 0.006-0.052 0.010-0.081 0.010-0.151 0-0.277-0.102-0.316-0.24l-0.001-0.002z"></path>
</symbol></defs></svg>